HIERARCHY
ROOT root
{
	OFFSET	0.000000	0.000000	0.000000
	CHANNELS 6 Xposition Yposition Zposition Zrotation Yrotation Xrotation
	JOINT lhipjoint
	{
		OFFSET	0.000000	0.000000	0.000000
		CHANNELS 3 Zrotation Yrotation Xrotation
		JOINT lfemur
		{
			OFFSET	1.645494	-1.708786	0.845660
			CHANNELS 3 Zrotation Yrotation Xrotation
			JOINT ltibia
			{
				OFFSET	2.249633	-6.180820	0.000000
				CHANNELS 3 Zrotation Yrotation Xrotation
				JOINT lfoot
				{
					OFFSET	2.717752	-7.466968	0.000000
					CHANNELS 3 Zrotation Yrotation Xrotation
					JOINT ltoes
					{
						OFFSET	0.187679	-0.515643	2.247368
						CHANNELS 3 Zrotation Yrotation Xrotation
						End Site
						{
							OFFSET	0.000000	-0.000000	1.159350
						}
					}
				}
			}
		}
	}
	JOINT rhipjoint
	{
		OFFSET	0.000000	0.000000	0.000000
		CHANNELS 3 Zrotation Yrotation Xrotation
		JOINT rfemur
		{
			OFFSET	-1.588298	-1.708789	0.845662
			CHANNELS 3 Zrotation Yrotation Xrotation
			JOINT rtibia
			{
				OFFSET	-2.250064	-6.182003	0.000000
				CHANNELS 3 Zrotation Yrotation Xrotation
				JOINT rfoot
				{
					OFFSET	-2.728293	-7.495929	0.000000
					CHANNELS 3 Zrotation Yrotation Xrotation
					JOINT rtoes
					{
						OFFSET	-0.215414	-0.591846	2.106425
						CHANNELS 3 Zrotation Yrotation Xrotation
						End Site
						{
							OFFSET	-0.000000	-0.000000	1.098380
						}
					}
				}
			}
		}
	}
	JOINT lowerback
	{
		OFFSET	0.000000	0.000000	0.000000
		CHANNELS 3 Zrotation Yrotation Xrotation
		JOINT upperback
		{
			OFFSET	0.031419	2.104964	-0.110379
			CHANNELS 3 Zrotation Yrotation Xrotation
			JOINT thorax
			{
				OFFSET	-0.018626	2.108971	-0.069557
				CHANNELS 3 Zrotation Yrotation Xrotation
				JOINT lowerneck
				{
					OFFSET	-0.034945	2.110023	-0.018114
					CHANNELS 3 Zrotation Yrotation Xrotation
					JOINT upperneck
					{
						OFFSET	-0.022675	1.732376	0.004511
						CHANNELS 3 Zrotation Yrotation Xrotation
						JOINT head
						{
							OFFSET	-0.058084	1.547243	-0.617485
							CHANNELS 3 Zrotation Yrotation Xrotation
							End Site
							{
								OFFSET	-0.013955	1.714682	-0.210818
							}
						}
					}
				}
				JOINT lclavicle
				{
					OFFSET	-0.034945	2.110023	-0.018114
					CHANNELS 3 Zrotation Yrotation Xrotation
					JOINT lhumerus
					{
						OFFSET	3.448981	0.502979	0.219205
						CHANNELS 3 Zrotation Yrotation Xrotation
						JOINT lradius
						{
							OFFSET	5.419170	-0.000000	-0.000000
							CHANNELS 3 Zrotation Yrotation Xrotation
							JOINT lwrist
							{
								OFFSET	2.443730	-0.000000	0.000000
								CHANNELS 3 Zrotation Yrotation Xrotation
								JOINT lhand
								{
									OFFSET	1.221860	-0.000000	0.000000
									CHANNELS 3 Zrotation Yrotation Xrotation
									JOINT lfingers
									{
										OFFSET	0.727502	-0.000000	0.000000
										CHANNELS 3 Zrotation Yrotation Xrotation
										End Site
										{
											OFFSET	0.586531	-0.000000	0.000000
										}
									}
								}
								JOINT lthumb
								{
									OFFSET	1.221860	-0.000000	0.000000
									CHANNELS 3 Zrotation Yrotation Xrotation
									End Site
									{
										OFFSET	0.595487	-0.000000	0.595487
									}
								}
							}
						}
					}
				}
				JOINT rclavicle
				{
					OFFSET	-0.034945	2.110023	-0.018114
					CHANNELS 3 Zrotation Yrotation Xrotation
					JOINT rhumerus
					{
						OFFSET	-3.230153	0.558301	0.310511
						CHANNELS 3 Zrotation Yrotation Xrotation
						JOINT rradius
						{
							OFFSET	-5.589760	-0.000102	0.000137
							CHANNELS 3 Zrotation Yrotation Xrotation
							JOINT rwrist
							{
								OFFSET	-2.480600	-0.000000	0.000000
								CHANNELS 3 Zrotation Yrotation Xrotation
								JOINT rhand
								{
									OFFSET	-1.240300	-0.000000	0.000000
									CHANNELS 3 Zrotation Yrotation Xrotation
									JOINT rfingers
									{
										OFFSET	-0.816009	-0.000000	0.000000
										CHANNELS 3 Zrotation Yrotation Xrotation
										End Site
										{
											OFFSET	-0.657887	-0.000000	0.000000
										}
									}
								}
								JOINT rthumb
								{
									OFFSET	-1.240300	-0.000000	0.000000
									CHANNELS 3 Zrotation Yrotation Xrotation
									End Site
									{
										OFFSET	-0.667932	-0.000000	0.667932
									}
								}
							}
						}
					}
				}
			}
		}
	}
}
MOTION
Frames:	6
Frame Time:	0.008333
	1.626400	16.188200	-32.770000	-4.762530	5.418200	18.735096	0.000000	0.000000	0.000000	-20.755991	-16.378496	-33.952507	4.516516	12.817720	38.689903	4.410180	11.528697	-44.605480	0.155063	2.537311	6.993111	0.000000	0.000000	0.000000	13.778989	24.862240	-65.871277	-5.280167	-13.692527	42.019466	4.752504	-36.072338	-24.029764	-4.533391	-12.838236	38.765907	2.367910	0.747057	-6.642499	1.037290	1.036170	-10.146201	-0.230832	0.407695	-6.879990	-1.235770	-1.048490	-10.955800	4.903979	-3.165250	40.699200	1.894820	-0.799386	16.629698	-1.235770	-0.000000	0.000000	30.889339	-23.651600	-48.699642	16.436865	-26.109413	-3.836206	0.000000	0.000000	18.419500	-5.692224	18.094608	-1.773206	-7.125019	0.000000	0.000000	-31.085104	45.536335	-0.456499	-1.235770	-0.000000	0.000000	-24.844336	25.632528	-40.956833	-14.270786	23.120502	-2.933600	0.000000	0.000000	6.030897	8.173436	5.419371	0.777166	7.125019	0.000000	0.000000	25.261585	-24.344755	13.953770
	1.627740	16.193100	-32.756599	-4.675470	5.600791	18.754499	0.000000	0.000000	0.000000	-20.883566	-16.258121	-33.857708	4.485451	12.779799	38.549679	4.358764	11.497320	-44.375023	0.143925	2.444915	6.736941	0.000000	0.000000	0.000000	13.381022	24.980989	-65.938454	-5.289883	-13.702994	42.060493	4.476598	-35.627270	-25.534130	-4.642788	-12.969867	39.255779	2.254080	0.645058	-7.060970	1.105380	0.883382	-9.869310	-0.092327	0.348059	-6.345191	-1.257280	-1.048190	-10.902900	4.781740	-3.093210	40.350700	1.843670	-0.794026	16.418400	-1.257280	0.000000	0.000000	32.658764	-23.755182	-50.864025	16.899935	-26.725662	-4.042238	-0.000001	-0.000003	17.781296	-5.085057	18.094584	-1.583103	-7.125019	0.000000	0.000000	-30.573822	45.612694	-0.510941	-1.257280	0.000000	0.000000	-26.669188	25.822376	-43.335594	-14.498697	23.443132	-3.023683	0.000000	0.000003	6.175748	8.279896	5.660654	0.822376	7.125019	0.000000	0.000000	25.283766	-24.120663	14.117283
	1.630420	16.196501	-32.748100	-4.695121	5.921680	18.869902	0.000000	0.000000	0.000000	-20.832348	-16.180231	-33.992813	4.472652	12.764120	38.491779	4.251464	11.715999	-44.040943	0.102031	2.059790	5.670909	0.000000	0.000000	0.000000	12.930596	25.184385	-66.125801	-5.293254	-13.706623	42.074722	4.368786	-35.523376	-26.360773	-4.660436	-12.990883	39.334351	2.456510	0.589186	-6.497610	1.036510	0.836051	-10.387300	-0.283776	0.297083	-7.231542	-1.203460	-1.099610	-10.288899	4.781290	-3.185241	40.414902	1.820550	-0.830857	16.303600	-1.203460	0.000000	0.000000	34.155144	-24.409788	-51.715946	17.462807	-27.463852	-4.298607	0.000000	0.000000	16.690290	-5.162910	17.464802	-1.553317	-7.125019	0.000000	0.000000	-30.330387	45.055683	-0.046069	-1.203460	0.000000	0.000000	-27.684448	26.089125	-44.271973	-14.854084	23.942444	-3.166490	0.000000	0.000000	6.239058	8.675738	5.990696	0.912369	7.125019	0.000000	0.000000	25.480726	-23.805597	14.463058
	1.628640	16.197800	-32.740101	-4.628720	6.303831	19.042398	0.000000	0.000000	0.000000	-20.829660	-16.171408	-34.146557	4.453244	12.740279	38.403862	4.152463	11.782800	-43.658363	0.068986	1.694542	4.662211	0.000000	0.000000	0.000000	12.256118	25.487913	-66.401695	-5.304962	-13.719211	42.124111	4.149650	-35.340244	-27.960131	-4.836123	-13.196836	40.109840	2.547970	0.565558	-6.177960	0.888813	0.819365	-10.778200	-0.493264	0.267547	-7.845471	-1.152470	-1.211310	-9.780210	4.890440	-3.403700	40.332806	1.822310	-0.906299	16.147301	-1.152470	0.000000	0.000000	35.782040	-25.183884	-52.663086	18.092789	-28.275820	-4.593113	0.000000	0.000000	15.415998	-4.965236	17.243422	-1.475221	-7.125019	0.000000	0.000000	-30.058002	44.886906	0.092569	-1.152470	0.000000	0.000000	-28.659201	26.171452	-45.144699	-15.224777	24.458309	-3.318450	0.000000	0.000000	5.997416	8.658922	6.089370	0.925514	7.125019	0.000000	0.000000	25.449594	-23.716108	14.500951
	1.625900	16.197500	-32.732601	-4.641140	6.378810	19.233097	0.000000	0.000000	0.000000	-20.723331	-16.253971	-34.326534	4.443187	12.727893	38.358238	4.127657	11.758069	-43.539455	0.054808	1.510696	4.155209	0.000000	0.000000	0.000000	12.021186	25.606775	-66.635658	-5.308645	-13.723166	42.139637	3.816729	-34.801876	-29.201775	-5.130090	-13.528815	41.381718	2.458480	0.518714	-6.080801	0.976516	0.767180	-10.818900	-0.351496	0.251479	-7.949591	-1.166400	-1.188740	-10.122302	4.835629	-3.345460	40.292900	1.808390	-0.887192	16.206198	-1.166400	0.000000	-0.000000	37.244114	-25.424854	-54.202686	18.706255	-29.052042	-4.887384	0.000000	0.000000	14.550697	-4.478738	17.239134	-1.329790	-7.125019	0.000000	0.000000	-29.647427	44.942219	0.046506	-1.166400	0.000000	-0.000000	-30.178143	26.244867	-46.184952	-15.664646	25.063841	-3.502689	0.000000	0.000000	4.794898	8.151935	5.868474	0.839109	7.125019	0.000000	0.000000	25.156284	-23.935158	14.152175
	1.624900	16.196800	-32.723499	-4.402300	6.617181	19.591299	0.000000	0.000000	0.000000	-20.870821	-16.342075	-34.658226	4.432509	12.714718	38.309738	4.025924	11.809845	-43.132156	0.039873	1.288823	3.543868	0.000000	0.000000	0.000000	12.117150	24.856760	-67.135956	-5.316609	-13.731712	42.173203	3.649216	-34.261639	-28.949505	-5.347638	-13.764908	42.303764	2.257150	0.443996	-6.591450	0.918271	0.656468	-11.059501	-0.295980	0.209645	-7.927970	-1.096560	-1.173150	-8.788780	4.786690	-3.281511	39.840103	1.771600	-0.878171	15.634301	-1.096560	0.000000	0.000000	38.605900	-25.990093	-55.201805	19.374283	-29.881090	-5.216008	0.000000	0.000000	13.724293	-4.343801	17.062309	-1.276764	-7.125019	0.000000	0.000000	-29.450424	44.803753	0.156794	-1.096560	0.000000	0.000000	-31.222626	26.374060	-46.641624	-16.204941	25.797741	-3.734704	0.000000	0.000003	3.587108	8.219809	5.735607	0.827104	7.125019	0.000000	0.000000	25.228367	-24.054234	14.123256
